<svg xmlns="http://www.w3.org/2000/svg" width="2rem" height="2rem" viewBox="0 0 26 26" fill="none">
  <path d="M13 3.25C13 3.07761 12.9315 2.91228 12.8096 2.79038C12.6877 2.66848 12.5224 2.6 12.35 2.6C12.1776 2.6 12.0123 2.66848 11.8904 2.79038C11.7685 2.91228 11.7 3.07761 11.7 3.25V11.7H3.25C3.07761 11.7 2.91228 11.7685 2.79038 11.8904C2.66848 12.0123 2.6 12.1776 2.6 12.35C2.6 12.5224 2.66848 12.6877 2.79038 12.8096C2.91228 12.9315 3.07761 13 3.25 13H11.7V21.45C11.7 21.6224 11.7685 21.7877 11.8904 21.9096C12.0123 22.0315 12.1776 22.1 12.35 22.1C12.5224 22.1 12.6877 22.0315 12.8096 21.9096C12.9315 21.7877 13 21.6224 13 21.45V13H21.45C21.6224 13 21.7877 12.9315 21.9096 12.8096C22.0315 12.6877 22.1 12.5224 22.1 12.35C22.1 12.1776 22.0315 12.0123 21.9096 11.8904C21.7877 11.7685 21.6224 11.7 21.45 11.7H13V3.25Z" fill="white"/>
</svg>